<svg xmlns="http://www.w3.org/2000/svg" xmlns:xlink="http://www.w3.org/1999/xlink" width="400" zoomAndPan="magnify" viewBox="0 0 300 127.500001" height="170" preserveAspectRatio="xMidYMid meet" version="1.0"><defs><g/><clipPath id="aa2a6f3b64"><path d="M 0.585938 0 L 105.921875 0 L 105.921875 127 L 0.585938 127 Z M 0.585938 0 " clip-rule="nonzero"/></clipPath></defs><g clip-path="url(#aa2a6f3b64)"><path fill="#ffffff" d="M 84.972656 84.6875 L 65.667969 84.6875 C 53.964844 84.6875 44.480469 75.203125 44.480469 63.5 C 44.480469 51.800781 53.964844 42.316406 65.667969 42.316406 L 84.972656 42.316406 L 105.699219 15.988281 L 79.941406 41.859375 L 91.203125 23.15625 L 78.449219 39.660156 L 93.105469 7.292969 L 74.289062 38.578125 L 80.746094 17.722656 L 72.3125 36.800781 L 78.796875 1.867188 L 68.015625 36.746094 L 69.292969 14.949219 L 65.667969 35.492188 L 63.605469 0.0234375 L 61.484375 36.46875 L 57.507812 15 L 58.902344 35.8125 L 48.414062 1.867188 L 55.078125 37.761719 L 46.078125 17.867188 L 52.414062 37.742188 L 34.105469 7.292969 L 49.164062 40.550781 L 35.667969 23.386719 L 46.574219 41.167969 L 21.511719 15.988281 L 44.09375 44.671875 L 26.878906 31.238281 L 41.726562 45.894531 L 11.363281 27.441406 L 40.152344 49.890625 L 20.226562 40.964844 L 38.148438 51.640625 L 4.25 40.992188 L 37.578125 55.898438 L 16.09375 52 L 36.046875 58.078125 L 0.589844 55.847656 L 36.515625 62.347656 L 14.722656 63.703125 L 35.550781 64.828125 L 0.589844 71.152344 L 37.023438 68.863281 L 16.191406 75.398438 L 36.683594 71.503906 L 4.25 86.011719 L 39.082031 75.066406 L 20.414062 86.398438 L 39.382812 77.714844 L 11.363281 99.5625 L 42.5625 80.601562 L 27.152344 96.070312 L 43.488281 83.097656 L 21.511719 111.015625 L 47.265625 85.140625 L 36.003906 103.847656 L 48.761719 87.34375 L 34.105469 119.710938 L 52.917969 88.421875 L 46.460938 109.28125 L 54.898438 90.203125 L 48.414062 125.136719 L 59.191406 90.253906 L 57.914062 112.050781 L 61.542969 91.511719 L 63.605469 126.980469 L 65.722656 90.53125 L 69.699219 112.003906 L 68.304688 91.191406 L 78.796875 125.136719 L 72.132812 89.242188 L 81.128906 109.136719 L 74.792969 89.261719 L 93.105469 119.710938 L 78.042969 86.453125 L 91.539062 103.617188 L 80.632812 85.832031 L 105.699219 111.015625 L 84.972656 84.6875 " fill-opacity="1" fill-rule="nonzero"/></g><g fill="#ffffff" fill-opacity="1"><g transform="translate(53.144827, 71.513548)"><g><path d="M 7.417969 -17.71875 L 13.679688 -17.71875 C 15.714844 -17.71875 17.390625 -16.070312 17.390625 -14.039062 L 18.871094 -14.039062 C 18.871094 -16.894531 16.539062 -19.230469 13.679688 -19.230469 L 7.417969 -19.230469 C 4.558594 -19.230469 2.253906 -16.894531 2.253906 -14.039062 C 2.253906 -11.179688 4.558594 -8.84375 7.417969 -8.84375 L 13.679688 -8.84375 C 15.714844 -8.84375 17.390625 -7.195312 17.390625 -5.164062 C 17.390625 -3.132812 15.714844 -1.484375 13.679688 -1.484375 L 7.417969 -1.484375 C 5.382812 -1.484375 3.734375 -3.132812 3.734375 -5.164062 L 2.253906 -5.164062 C 2.253906 -2.308594 4.558594 0 7.417969 0 L 13.679688 0 C 16.539062 0 18.871094 -2.308594 18.871094 -5.164062 C 18.871094 -8.019531 16.539062 -10.355469 13.679688 -10.355469 L 7.417969 -10.355469 C 5.382812 -10.355469 3.734375 -12.003906 3.734375 -14.039062 C 3.734375 -16.070312 5.382812 -17.71875 7.417969 -17.71875 Z M 7.417969 -17.71875 "/></g></g></g><g fill="#ffffff" fill-opacity="1"><g transform="translate(74.347132, 71.513548)"><g><path d="M 3.734375 -8.84375 L 13.679688 -8.84375 C 16.539062 -8.84375 18.871094 -11.179688 18.871094 -14.039062 C 18.871094 -16.894531 16.539062 -19.230469 13.679688 -19.230469 L 2.253906 -19.230469 L 2.253906 0 L 3.734375 0 Z M 3.734375 -17.71875 L 13.679688 -17.71875 C 15.714844 -17.71875 17.390625 -16.070312 17.390625 -14.039062 C 17.390625 -12.003906 15.714844 -10.355469 13.679688 -10.355469 L 3.734375 -10.355469 Z M 3.734375 -17.71875 "/></g></g></g><g fill="#ffffff" fill-opacity="1"><g transform="translate(95.549438, 71.513548)"><g><path d="M 3.734375 0 L 3.734375 -19.230469 L 2.253906 -19.230469 L 2.253906 0 Z M 3.734375 0 "/></g></g></g><g fill="#ffffff" fill-opacity="1"><g transform="translate(101.619004, 71.513548)"><g><path d="M 5.054688 -2.800781 C 6.867188 -0.988281 9.285156 0 11.839844 0 C 14.421875 0 16.839844 -0.988281 18.652344 -2.800781 L 17.609375 -3.847656 C 14.421875 -0.6875 9.285156 -0.6875 6.097656 -3.847656 C 4.558594 -5.382812 3.734375 -7.445312 3.734375 -9.613281 C 3.734375 -11.785156 4.558594 -13.816406 6.097656 -15.355469 C 9.285156 -18.515625 14.421875 -18.515625 17.609375 -15.355469 L 18.652344 -16.398438 C 16.839844 -18.214844 14.421875 -19.230469 11.839844 -19.230469 C 9.285156 -19.230469 6.867188 -18.214844 5.054688 -16.398438 C 3.242188 -14.585938 2.253906 -12.167969 2.253906 -9.613281 C 2.253906 -7.03125 3.242188 -4.613281 5.054688 -2.800781 Z M 5.054688 -2.800781 "/></g></g></g><g fill="#ffffff" fill-opacity="1"><g transform="translate(122.574133, 71.513548)"><g><path d="M 11.125 -7.527344 L 3.984375 -19.230469 L 2.253906 -19.230469 L 10.382812 -5.90625 L 10.382812 0 L 11.894531 0 L 11.894531 -5.90625 L 20.027344 -19.230469 L 18.296875 -19.230469 Z M 11.125 -7.527344 "/></g></g></g><g fill="#ffffff" fill-opacity="1"><g transform="translate(144.929936, 71.513548)"><g><path d="M 2.253906 -19.230469 L 2.253906 0 L 3.734375 0 L 3.734375 -16.453125 L 17.773438 0 L 18.871094 0 L 18.871094 -19.230469 L 17.390625 -19.230469 L 17.390625 -2.746094 L 3.324219 -19.230469 Z M 2.253906 -19.230469 "/></g></g></g><g fill="#ffffff" fill-opacity="1"><g transform="translate(166.132242, 71.513548)"><g><path d="M 11.839844 0 C 17.140625 0 21.453125 -4.3125 21.453125 -9.613281 C 21.453125 -14.917969 17.140625 -19.230469 11.839844 -19.230469 C 6.566406 -19.230469 2.253906 -14.917969 2.253906 -9.613281 C 2.253906 -4.3125 6.566406 0 11.839844 0 Z M 11.839844 -17.71875 C 16.34375 -17.71875 19.972656 -14.09375 19.972656 -9.613281 C 19.972656 -5.109375 16.34375 -1.484375 11.839844 -1.484375 C 7.363281 -1.484375 3.734375 -5.109375 3.734375 -9.613281 C 3.734375 -14.09375 7.363281 -17.71875 11.839844 -17.71875 Z M 11.839844 -17.71875 "/></g></g></g><g fill="#ffffff" fill-opacity="1"><g transform="translate(189.888718, 71.513548)"><g><path d="M 11.839844 0 C 17.140625 0 21.453125 -4.3125 21.453125 -9.613281 C 21.453125 -14.917969 17.140625 -19.230469 11.839844 -19.230469 C 6.566406 -19.230469 2.253906 -14.917969 2.253906 -9.613281 C 2.253906 -4.3125 6.566406 0 11.839844 0 Z M 11.839844 -17.71875 C 16.34375 -17.71875 19.972656 -14.09375 19.972656 -9.613281 C 19.972656 -5.109375 16.34375 -1.484375 11.839844 -1.484375 C 7.363281 -1.484375 3.734375 -5.109375 3.734375 -9.613281 C 3.734375 -14.09375 7.363281 -17.71875 11.839844 -17.71875 Z M 11.839844 -17.71875 "/></g></g></g><g fill="#ffffff" fill-opacity="1"><g transform="translate(213.645194, 71.513548)"><g><path d="M 2.253906 -19.230469 L 2.253906 0 L 3.734375 0 L 3.734375 -16.453125 L 17.773438 0 L 18.871094 0 L 18.871094 -19.230469 L 17.390625 -19.230469 L 17.390625 -2.746094 L 3.324219 -19.230469 Z M 2.253906 -19.230469 "/></g></g></g></svg>