<svg xmlns="http://www.w3.org/2000/svg" xmlns:xlink="http://www.w3.org/1999/xlink" width="100" zoomAndPan="magnify" viewBox="0 0 75 74.999997" height="100" preserveAspectRatio="xMidYMid meet" version="1.0"><defs><g/><clipPath id="e9714f2d85"><path d="M 1.984375 6.355469 L 53.734375 6.355469 L 53.734375 68.605469 L 1.984375 68.605469 Z M 1.984375 6.355469 " clip-rule="nonzero"/></clipPath></defs><g clip-path="url(#e9714f2d85)"><path fill="#ffffff" d="M 43.367188 47.890625 L 33.902344 47.890625 C 28.160156 47.890625 23.511719 43.238281 23.511719 37.5 C 23.511719 31.761719 28.160156 27.109375 33.902344 27.109375 L 43.367188 27.109375 L 53.53125 14.199219 L 40.902344 26.886719 L 46.425781 17.714844 L 40.167969 25.808594 L 47.355469 9.933594 L 38.128906 25.277344 L 41.296875 15.050781 L 37.160156 24.40625 L 40.339844 7.273438 L 35.050781 24.378906 L 35.679688 13.6875 L 33.902344 23.765625 L 32.886719 6.367188 L 31.847656 24.242188 L 29.898438 13.714844 L 30.582031 23.921875 L 25.4375 7.273438 L 28.707031 24.875 L 24.292969 15.121094 L 27.402344 24.867188 L 18.421875 9.933594 L 25.808594 26.246094 L 19.1875 17.828125 L 24.535156 26.546875 L 12.246094 14.199219 L 23.320312 28.265625 L 14.878906 21.679688 L 22.160156 28.863281 L 7.269531 19.816406 L 21.386719 30.824219 L 11.613281 26.449219 L 20.402344 31.683594 L 3.78125 26.460938 L 20.125 33.769531 L 9.589844 31.859375 L 19.375 34.839844 L 1.984375 33.746094 L 19.601562 36.933594 L 8.914062 37.601562 L 19.128906 38.152344 L 1.984375 41.253906 L 19.851562 40.128906 L 9.636719 43.335938 L 19.6875 41.425781 L 3.78125 48.539062 L 20.863281 43.171875 L 11.707031 48.730469 L 21.007812 44.472656 L 7.269531 55.183594 L 22.570312 45.886719 L 15.011719 53.472656 L 23.023438 47.109375 L 12.246094 60.800781 L 24.875 48.113281 L 19.351562 57.285156 L 25.609375 49.191406 L 18.421875 65.066406 L 27.648438 49.722656 L 24.480469 59.949219 L 28.617188 50.59375 L 25.4375 67.726562 L 30.726562 50.621094 L 30.097656 61.3125 L 31.875 51.234375 L 32.886719 68.632812 L 33.929688 50.757812 L 35.878906 61.285156 L 35.195312 51.078125 L 40.339844 67.726562 L 37.070312 50.125 L 41.484375 59.878906 L 38.375 50.132812 L 47.355469 65.066406 L 39.96875 48.753906 L 46.589844 57.171875 L 41.242188 48.453125 L 53.53125 60.800781 L 43.367188 47.890625 " fill-opacity="1" fill-rule="nonzero"/></g><g fill="#ffffff" fill-opacity="1"><g transform="translate(27.759237, 41.429582)"><g><path d="M 1.105469 -9.429688 L 1.105469 0 L 1.832031 0 L 1.832031 -8.070312 L 8.714844 0 L 9.253906 0 L 9.253906 -9.429688 L 8.527344 -9.429688 L 8.527344 -1.347656 L 1.628906 -9.429688 Z M 1.105469 -9.429688 "/></g></g></g><g fill="#ffffff" fill-opacity="1"><g transform="translate(38.157433, 41.429582)"><g><path d="M 5.804688 0 C 8.40625 0 10.523438 -2.113281 10.523438 -4.714844 C 10.523438 -7.316406 8.40625 -9.429688 5.804688 -9.429688 C 3.21875 -9.429688 1.105469 -7.316406 1.105469 -4.714844 C 1.105469 -2.113281 3.21875 0 5.804688 0 Z M 5.804688 -8.691406 C 8.015625 -8.691406 9.792969 -6.910156 9.792969 -4.714844 C 9.792969 -2.503906 8.015625 -0.726562 5.804688 -0.726562 C 3.609375 -0.726562 1.832031 -2.503906 1.832031 -4.714844 C 1.832031 -6.910156 3.609375 -8.691406 5.804688 -8.691406 Z M 5.804688 -8.691406 "/></g></g></g><g fill="#ffffff" fill-opacity="1"><g transform="translate(49.808265, 41.429582)"><g><path d="M 5.804688 0 C 8.40625 0 10.523438 -2.113281 10.523438 -4.714844 C 10.523438 -7.316406 8.40625 -9.429688 5.804688 -9.429688 C 3.21875 -9.429688 1.105469 -7.316406 1.105469 -4.714844 C 1.105469 -2.113281 3.21875 0 5.804688 0 Z M 5.804688 -8.691406 C 8.015625 -8.691406 9.792969 -6.910156 9.792969 -4.714844 C 9.792969 -2.503906 8.015625 -0.726562 5.804688 -0.726562 C 3.609375 -0.726562 1.832031 -2.503906 1.832031 -4.714844 C 1.832031 -6.910156 3.609375 -8.691406 5.804688 -8.691406 Z M 5.804688 -8.691406 "/></g></g></g><g fill="#ffffff" fill-opacity="1"><g transform="translate(61.459097, 41.429582)"><g><path d="M 1.105469 -9.429688 L 1.105469 0 L 1.832031 0 L 1.832031 -8.070312 L 8.714844 0 L 9.253906 0 L 9.253906 -9.429688 L 8.527344 -9.429688 L 8.527344 -1.347656 L 1.628906 -9.429688 Z M 1.105469 -9.429688 "/></g></g></g></svg>